<?xml version="1.0" standalone="no"?><svg xmlns="http://www.w3.org/2000/svg" viewBox="0 0 1440 320"><path fill="#0099ff" fill-opacity="1" d="M0,224L26.7,192C53.3,160,107,96,160,96C213.3,96,267,160,320,186.7C373.3,213,427,203,480,197.3C533.3,192,587,192,640,170.7C693.3,149,747,107,800,85.3C853.3,64,907,64,960,85.3C1013.3,107,1067,149,1120,192C1173.3,235,1227,277,1280,272C1333.3,267,1387,213,1413,186.7L1440,160L1440,0L1413.3,0C1386.7,0,1333,0,1280,0C1226.7,0,1173,0,1120,0C1066.7,0,1013,0,960,0C906.7,0,853,0,800,0C746.7,0,693,0,640,0C586.7,0,533,0,480,0C426.7,0,373,0,320,0C266.7,0,213,0,160,0C106.7,0,53,0,27,0L0,0Z"></path></svg>